<svg xmlns="http://www.w3.org/2000/svg" width="46" height="46" viewBox="0 0 46 46">
    <g data-name="Group 2" transform="translate(-1304 -4781)">
        <circle data-name="Ellipse 2" cx="23" cy="23" r="23" transform="translate(1304 4781)" style="fill:#ed2424"/>
        <path data-name="Path 15" d="M138.069-511.9a4.576 4.576 0 0 0-2.744 1.56 5.59 5.59 0 0 0-.847 1.681 10.294 10.294 0 0 0-.238 3.159v1.828H131v3.932h3.241v9.9h3.975v-9.9l1.543-.009 1.547-.013.22-1.793c.125-.985.233-1.867.246-1.957l.022-.16h-3.578v-1.547c0-1.694.03-1.949.246-2.351a1.273 1.273 0 0 1 .726-.575 7.8 7.8 0 0 1 2-.151h.959v-3.535l-.246-.026a21.349 21.349 0 0 0-3.832-.043z" transform="translate(1190 5304.969)" style="fill:#fff"/>
    </g>
</svg>
