<svg xmlns="http://www.w3.org/2000/svg" width="46" height="46" viewBox="0 0 46 46">
    <defs>
        <style>
            .cls-2{fill:#fff}
        </style>
    </defs>
    <g id="Group_3" data-name="Group 3" transform="translate(-1370 -4781)">
        <circle id="Ellipse_3" data-name="Ellipse 3" cx="23" cy="23" r="23" transform="translate(1370 4781)" style="fill:#ed2424"/>
        <g id="instagram1" transform="translate(1382 4793)">
            <path id="Path_16" data-name="Path 16" class="cls-2" d="M6.781-511.81A6.761 6.761 0 0 0 2.5-510.3a6.432 6.432 0 0 0-2.1 4.968c-.117 2.106-.086 8.634.048 9.814a6.3 6.3 0 0 0 1.695 3.9 5.55 5.55 0 0 0 2.6 1.526c1.167.337 2.032.38 7.307.355 4.237-.017 4.579-.03 5.448-.208a5.827 5.827 0 0 0 4.773-4.8c.173-.891.182-1.362.169-6.455l-.017-4.885-.1-.541a6.043 6.043 0 0 0-1.617-3.32c-1.2-1.224-2.534-1.738-4.829-1.868-.933-.053-8.136-.048-9.096.004zm9.481 2.071a4.542 4.542 0 0 1 2.841 1.094 3.659 3.659 0 0 1 1.025 1.669 7.011 7.011 0 0 1 .285 1.885c.056 1.007.056 7.64 0 8.63-.1 1.794-.428 2.681-1.288 3.506a4.245 4.245 0 0 1-2.668 1.115c-1.072.121-9.066.121-10.074 0a5.2 5.2 0 0 1-2.036-.61 5.012 5.012 0 0 1-1.072-.986 4.633 4.633 0 0 1-.735-1.907 44.964 44.964 0 0 1-.156-5.469 44.578 44.578 0 0 1 .151-5.361 3.963 3.963 0 0 1 1.393-2.627 3.389 3.389 0 0 1 1.224-.653 8.13 8.13 0 0 1 2.214-.329c1.149-.053 8.287-.018 8.897.043z" transform="translate(-.323 511.852)"/>
            <path id="Path_17" data-name="Path 17" class="cls-2" d="M363.74-423.767a1.341 1.341 0 0 0-.934 1.526 1.179 1.179 0 0 0 .368.722 1.106 1.106 0 0 0 .891.367.945.945 0 0 0 .657-.117 1.308 1.308 0 0 0 .64-.653 1.562 1.562 0 0 0 0-1.085 1.4 1.4 0 0 0-1.622-.76z" transform="translate(-347.117 427.622)"/>
            <path id="Path_18" data-name="Path 18" class="cls-2" d="M130.42-387.574a5.924 5.924 0 0 0-2.49.96 7.668 7.668 0 0 0-1.483 1.487 6.26 6.26 0 0 0-.9 2.2 8 8 0 0 0 .022 2.132 5.726 5.726 0 0 0 4.488 4.492 7.717 7.717 0 0 0 2.231 0 5.526 5.526 0 0 0 2.888-1.565 5.582 5.582 0 0 0 1.6-2.962 7.244 7.244 0 0 0 0-2.162 5.737 5.737 0 0 0-4.505-4.518 7.827 7.827 0 0 0-1.851-.064zm1.643 2.114a3.7 3.7 0 0 1 2.659 2.659 2.962 2.962 0 0 1 .1.886 3.212 3.212 0 0 1-.337 1.543 3.662 3.662 0 0 1-4.388 1.954 3.749 3.749 0 0 1-2.495-2.676 4.49 4.49 0 0 1 0-1.665 3.7 3.7 0 0 1 3.727-2.806 4.251 4.251 0 0 1 .734.105z" transform="translate(-120.075 392.976)"/>
        </g>
    </g>
</svg>
