<svg xmlns="http://www.w3.org/2000/svg" width="46" height="46" viewBox="0 0 46 46">
    <defs>
        <style>
            .cls-2{fill:#fff}
        </style>
    </defs>
    <g id="Group_1" data-name="Group 1" transform="translate(-1238 -4781)">
        <circle id="Ellipse_1" data-name="Ellipse 1" cx="23" cy="23" r="23" transform="translate(1238 4781)" style="fill:#ed2424"/>
        <g id="linkedin-_1_1" transform="translate(1250.816 5305.839)">
            <path id="Path_20" data-name="Path 20" class="cls-2" d="M1.976-511.785a2.422 2.422 0 0 0-1.552 1.214 2.32 2.32 0 0 0 .412 2.642 2.278 2.278 0 0 0 3.291 0 2.3 2.3 0 0 0 .409-2.639 2.484 2.484 0 0 0-1.031-1.032 2.334 2.334 0 0 0-1.529-.185z"/>
            <path id="Path_21" data-name="Path 21" class="cls-2" d="M187.769-349.681a4.215 4.215 0 0 0-2.751 1.762l-.176.262-.011-.892-.007-.888H181v12.819h3.973v-3.366c0-2.091.015-3.523.041-3.789.127-1.368.637-2.129 1.6-2.384a3.158 3.158 0 0 1 1.241-.041 1.568 1.568 0 0 1 1.226.937c.337.7.356.952.356 5.161v3.482h3.973v-3.853c0-2.2-.015-4.074-.037-4.374a5.7 5.7 0 0 0-1.271-3.7 3.825 3.825 0 0 0-2.1-1.087 9.313 9.313 0 0 0-2.233-.049z" transform="translate(-174.039 -156.036)"/>
            <path id="Path_22" data-name="Path 22" class="cls-2" d="M8.026-341.806c-.015.011-.026 2.9-.026 6.409v6.383h4.011l-.007-6.4-.011-6.4-1.972-.011c-1.084-.003-1.984.004-1.995.019z" transform="translate(-7.523 -163.642)"/>
        </g>
    </g>
</svg>
