<svg xmlns="http://www.w3.org/2000/svg" width="46" height="46" viewBox="0 0 46 46">
    <g data-name="Group 4" transform="translate(-1436 -4781)">
        <circle data-name="Ellipse 4" cx="23" cy="23" r="23" transform="translate(1436 4781)" style="fill:#ed2424"/>
        <path data-name="Path 19" d="M16.208-463.671a5.151 5.151 0 0 0-3.514 2.644 5.451 5.451 0 0 0-.515 3.315l.034.185h-.19c-.107 0-.467-.034-.8-.073a14.336 14.336 0 0 1-8.325-4c-.316-.306-.695-.71-.846-.889a2.331 2.331 0 0 0-.316-.331 4.462 4.462 0 0 0-.642 1.7 5.126 5.126 0 0 0 1.983 5l.141.107-.238-.029a5.572 5.572 0 0 1-1.769-.505 1.263 1.263 0 0 0-.224-.1 1.4 1.4 0 0 0 0 .428 5.1 5.1 0 0 0 2.051 3.766 4.984 4.984 0 0 0 1.477.768l.408.131-.282.058a7.4 7.4 0 0 1-1.641.028c-.165-.029-.233-.024-.233.015a4.743 4.743 0 0 0 .593 1.225 5.225 5.225 0 0 0 3.742 2.3l.33.034-.219.17a10.6 10.6 0 0 1-3.742 1.691 11.817 11.817 0 0 1-3.047.233 1.322 1.322 0 0 0-.424-.01 3.908 3.908 0 0 0 .549.35 14.2 14.2 0 0 0 5.9 1.886 24.052 24.052 0 0 0 3.509-.068 13.962 13.962 0 0 0 7-3.008 14.984 14.984 0 0 0 5.39-11.324v-.71l.433-.345a12.6 12.6 0 0 0 1.8-1.876 1.976 1.976 0 0 0 .277-.442 1.319 1.319 0 0 0-.379.117 11.166 11.166 0 0 1-1.429.447 4.544 4.544 0 0 1-.914.151c.019-.019.165-.126.316-.243a6.024 6.024 0 0 0 1.123-1.186 6.1 6.1 0 0 0 .593-1.21c.034-.131.019-.126-.617.194a11.391 11.391 0 0 1-2.236.826l-.369.1-.214-.219a5.591 5.591 0 0 0-2.2-1.23 7.255 7.255 0 0 0-2.324-.071z" transform="translate(1447 5257.736)" style="fill:#fff"/>
    </g>
</svg>
