<svg id="trash" xmlns="http://www.w3.org/2000/svg" width="24" height="24" viewBox="0 0 24 24">
    <defs>
        <style>
            .cls-1{fill:#b9b9b9}
        </style>
    </defs>
    <path id="Vector" class="cls-1" d="M18.857 1.968h-.08a81.574 81.574 0 0 0-15.887-.2l-2.051.2A.754.754 0 0 1 0 1.3.733.733 0 0 1 .677.5L2.728.3a84.027 84.027 0 0 1 16.2.2.733.733 0 0 1-.07 1.464z" transform="translate(2.193 4.725)"/>
    <path id="Vector-2" data-name="Vector" class="cls-1" d="M.733 4.364a.6.6 0 0 1-.127-.01.735.735 0 0 1-.6-.84l.219-1.279C.381 1.3.6 0 2.871 0h2.557c2.284 0 2.5 1.347 2.645 2.245l.215 1.269a.728.728 0 1 1-1.435.244l-.214-1.269c-.137-.849-.166-1.015-1.2-1.015H2.88c-1.035 0-1.054.137-1.2 1.005l-.225 1.27a.733.733 0 0 1-.722.615z" transform="translate(7.85 1.22)"/>
    <path id="Vector-3" data-name="Vector" class="cls-1" d="M10.961 14.019H4.452c-3.538 0-3.68-1.884-3.792-3.407L0 .782A.749.749 0 0 1 .712 0a.759.759 0 0 1 .811.683l.659 9.83c.112 1.484.152 2.04 2.271 2.04h6.508c2.129 0 2.169-.556 2.271-2.04l.659-9.83A.765.765 0 0 1 14.7 0a.743.743 0 0 1 .71.781l-.659 9.83c-.11 1.524-.251 3.408-3.79 3.408z" transform="translate(4.293 8.761)"/>
    <path id="Vector-4" data-name="Vector" class="cls-1" d="M3.983 1.464H.732A.737.737 0 0 1 0 .732.737.737 0 0 1 .732 0h3.251a.737.737 0 0 1 .732.732.737.737 0 0 1-.732.732z" transform="translate(9.637 15.775)"/>
    <path id="Vector-5" data-name="Vector" class="cls-1" d="M5.613 1.464H.732A.737.737 0 0 1 0 .732.737.737 0 0 1 .732 0h4.881a.737.737 0 0 1 .732.732.737.737 0 0 1-.732.732z" transform="translate(8.827 11.769)"/>
</svg>
