<svg xmlns="http://www.w3.org/2000/svg" width="24" height="24" viewBox="0 0 24 24">
    <defs>
        <style>
            .cls-1{fill:#fff}
        </style>
    </defs>
    <g id="vuesax_outline_shopping-cart" data-name="vuesax/outline/shopping-cart" transform="translate(-622 -188)">
        <g id="shopping-cart">
            <path id="Vector" class="cls-1" d="M16.94 16.5H6.29a3.563 3.563 0 0 1-3.54-3.85l.83-9.96a1.1 1.1 0 0 0-1.1-1.19H.75A.755.755 0 0 1 0 .75.755.755 0 0 1 .75 0h1.74a2.585 2.585 0 0 1 2.49 1.88h12.49A3.566 3.566 0 0 1 20.09 3a3.524 3.524 0 0 1 .93 2.69l-.54 7.5a3.588 3.588 0 0 1-3.54 3.31zM5.03 3.37l-.78 9.4a2.041 2.041 0 0 0 2.04 2.22h10.65A2.133 2.133 0 0 0 19 13.07l.54-7.5a2.041 2.041 0 0 0-2.06-2.21H5.03z" transform="translate(623.25 189.25)"/>
            <path id="Vector-2" data-name="Vector" class="cls-1" d="M2 4a2 2 0 1 1 2-2 2.006 2.006 0 0 1-2 2zm0-2.5a.5.5 0 1 0 .5.5.5.5 0 0 0-.5-.5z" transform="translate(636.25 206.75)"/>
            <path id="Vector-3" data-name="Vector" class="cls-1" d="M2 4a2 2 0 1 1 2-2 2.006 2.006 0 0 1-2 2zm0-2.5a.5.5 0 1 0 .5.5.5.5 0 0 0-.5-.5z" transform="translate(628.25 206.75)"/>
            <path id="Vector-4" data-name="Vector" class="cls-1" d="M12.75 1.5h-12A.755.755 0 0 1 0 .75.755.755 0 0 1 .75 0h12a.755.755 0 0 1 .75.75.755.755 0 0 1-.75.75z" transform="translate(630.25 195.25)"/>
        </g>
    </g>
</svg>
