<svg xmlns="http://www.w3.org/2000/svg" width="24" height="24" viewBox="0 0 24 24">
    <path d="M10.75 19.3a2.589 2.589 0 0 1-.86-.13C6.07 17.86 0 13.21 0 6.34A6.329 6.329 0 0 1 6.31 0a6.214 6.214 0 0 1 4.44 1.84A6.214 6.214 0 0 1 15.19 0a6.336 6.336 0 0 1 6.31 6.34c0 6.88-6.07 11.52-9.89 12.83a2.589 2.589 0 0 1-.86.13zM6.31 1.5A4.831 4.831 0 0 0 1.5 6.34c0 6.83 6.57 10.63 8.88 11.42a1.585 1.585 0 0 0 .75 0c2.3-.79 8.88-4.58 8.88-11.42A4.831 4.831 0 0 0 15.2 1.5a4.751 4.751 0 0 0-3.84 1.94.774.774 0 0 1-1.2 0A4.77 4.77 0 0 0 6.31 1.5z" transform="translate(1.25 2.35)" style="fill:#fff" data-name="vuesax/outline/heart"/>
</svg>
