<svg xmlns="http://www.w3.org/2000/svg" width="24" height="24" viewBox="0 0 24 24">
    <defs>
        <style>
            .cls-1{fill:#fff}
        </style>
    </defs>
    <g id="vuesax_outline_search-normal" data-name="vuesax/outline/search-normal" transform="translate(-428 -188)">
        <g id="search-normal">
            <path id="Vector" class="cls-1" d="M10.25 20.5A10.25 10.25 0 1 1 20.5 10.25 10.264 10.264 0 0 1 10.25 20.5zm0-19A8.75 8.75 0 1 0 19 10.25a8.76 8.76 0 0 0-8.75-8.75z" transform="translate(429.25 189.25)"/>
            <path id="Vector-2" data-name="Vector" class="cls-1" d="M2.748 3.5a.742.742 0 0 1-.53-.22l-2-2A.75.75 0 0 1 1.278.218l2 2a.754.754 0 0 1 0 1.06.742.742 0 0 1-.53.222z" transform="translate(447.253 207.253)"/>
        </g>
    </g>
</svg>
